PathFileType	4	(X/Y/Z)	OpenSim_Sub09_CSBaseline_Magnet.trc
DataRate	CameraRate	NumFrames	NumMarkers	Units	OrigDataRate	OrigDataStartFrame	OrigNumFrames
100	100	20	8	m	100	3651	5840
Frame#	Time	torso_imu_offset_imu	pelvis_imu_offset_imu	tibia_r_imu_offset_imu	femur_r_imu_offset_imu	tibia_l_imu_offset_imu	femur_l_imu_offset_imu	toes_r_imu_offset_imu	toes_l_imu_offset_imu
				X1	Y1	Z1	X2	Y2	Z2	X3	Y3	Z3	X4	Y4	Z4	X5	Y5	Z5	X6	Y6	Z6	X7	Y7	Z7	X8		Y8	Z8	

3651	36.50000000	-0.91107329	-0.21787038	0.02567549	-0.65193219	0.32147253	-0.59058509	-0.62964256	-0.54100656	-0.21376165	-0.82995387	-0.22225553	-0.08106790	-0.60300581	0.50894369	0.19380106	-0.62852495	0.14329452	0.28248522	-0.63193917	-0.15262860	-0.45318071	-0.71541298	-0.12390016	-0.38365621
3652	36.51000000	-0.90915650	-0.21938081	0.02802800	-0.64326923	0.31814236	-0.59327353	-0.65107833	-0.50979930	-0.22140564	-0.82972388	-0.23151267	-0.06955710	-0.60290465	0.51684846	0.19339819	-0.63283458	0.14882307	0.29734222	-0.61990975	-0.14430729	-0.47568733	-0.71804571	-0.12689909	-0.38367494
3653	36.52000000	-0.90819212	-0.21813080	0.02508084	-0.64310909	0.31731006	-0.59359356	-0.66439774	-0.48269327	-0.23451129	-0.82871384	-0.23314499	-0.06317353	-0.59397151	0.51907769	0.19305663	-0.62610907	0.15013483	0.29064455	-0.60091370	-0.13227542	-0.50047003	-0.72163026	-0.12493290	-0.38550289
3654	36.53000000	-0.91248886	-0.21699778	0.02852026	-0.64754309	0.31582373	-0.59337066	-0.68576398	-0.45783097	-0.24038634	-0.82777390	-0.23799951	-0.06313665	-0.59296677	0.52712141	0.19548289	-0.62227603	0.15329731	0.29470642	-0.57959489	-0.11962531	-0.52596542	-0.72019154	-0.11831899	-0.38648581
3655	36.54000000	-0.91175450	-0.22119497	0.03173747	-0.65084178	0.31325426	-0.59508468	-0.69575738	-0.43456893	-0.25101258	-0.82790990	-0.24317676	-0.05869470	-0.58854712	0.53036752	0.20385905	-0.62107079	0.15968108	0.29568604	-0.56413451	-0.10524202	-0.54681370	-0.71697164	-0.12831674	-0.38220256
3656	36.55000000	-0.90841031	-0.22022910	0.03117900	-0.64482254	0.31502381	-0.59801523	-0.70179133	-0.40991630	-0.26210761	-0.82787445	-0.24508299	-0.05644826	-0.57700620	0.53566680	0.19349529	-0.61670061	0.16470994	0.30067538	-0.55251779	-0.09278674	-0.55728608	-0.72072012	-0.12677514	-0.38286818
3657	36.56000000	-0.91276347	-0.21841997	0.03733207	-0.64717766	0.31537582	-0.59629534	-0.71338455	-0.38576005	-0.26588766	-0.82787830	-0.24788555	-0.04965406	-0.57383672	0.54538711	0.19669421	-0.61543178	0.16676388	0.29105634	-0.53569905	-0.07592232	-0.57723186	-0.72234253	-0.12378701	-0.38647505
3658	36.57000000	-0.90945551	-0.21177638	0.03811504	-0.64953107	0.31398666	-0.59516303	-0.73068045	-0.36999092	-0.26878984	-0.82677350	-0.24530644	-0.04852140	-0.56960406	0.54607562	0.19720855	-0.61865922	0.17271082	0.28898755	-0.52987583	-0.06711724	-0.59067850	-0.71770238	-0.11935144	-0.38001178
3659	36.58000000	-0.91219172	-0.21452419	0.04021169	-0.63973841	0.30927631	-0.60079010	-0.72672333	-0.35709591	-0.26773560	-0.81962521	-0.25249662	-0.04657118	-0.56775389	0.55306206	0.19088618	-0.61297020	0.17782473	0.28520754	-0.52336607	-0.05003279	-0.59502734	-0.72029725	-0.12081526	-0.38331105
3660	36.59000000	-0.91338014	-0.21409808	0.03674474	-0.64854306	0.31261214	-0.60776213	-0.73528322	-0.34654060	-0.26741227	-0.82470098	-0.25401575	-0.04621136	-0.55974035	0.56225565	0.19621963	-0.61374660	0.18037531	0.28680252	-0.51478381	-0.03750598	-0.60303688	-0.72610936	-0.11799104	-0.37866827
3661	36.60000000	-0.91494360	-0.21152732	0.03561317	-0.64865845	0.31150388	-0.59944281	-0.73537366	-0.33583311	-0.26997976	-0.82060649	-0.25593535	-0.04421061	-0.55683563	0.57115853	0.19350127	-0.61289855	0.18200404	0.28268919	-0.50973131	-0.03123731	-0.60784732	-0.72311021	-0.11263636	-0.37639550
3662	36.61000000	-0.91626183	-0.20964402	0.03717168	-0.65188887	0.31129284	-0.59805307	-0.74253488	-0.32987678	-0.27021255	-0.81831646	-0.25299614	-0.04343829	-0.54914290	0.57683717	0.18962910	-0.61067416	0.18838837	0.28481317	-0.50921565	-0.02495238	-0.61459001	-0.72149229	-0.11281606	-0.38123470
3663	36.62000000	-0.90990386	-0.20749070	0.04167393	-0.64959233	0.30742754	-0.59332152	-0.74106780	-0.33294415	-0.27278268	-0.82502884	-0.24972895	-0.04643538	-0.54238971	0.57794847	0.19136450	-0.60780790	0.19103498	0.27514527	-0.51127491	-0.01990890	-0.61222138	-0.72633701	-0.10658945	-0.37960376
3664	36.63000000	-0.91226775	-0.20521533	0.04204560	-0.64410398	0.30850345	-0.59871276	-0.73537471	-0.33733754	-0.26546797	-0.82372786	-0.25040097	-0.04043082	-0.53172745	0.59041411	0.19112974	-0.61373885	0.19570059	0.27288378	-0.51325129	-0.02177077	-0.60792449	-0.72484652	-0.10746178	-0.38155366
3665	36.64000000	-0.91715786	-0.20341331	0.04452444	-0.64543313	0.30934016	-0.60039019	-0.73547468	-0.34265886	-0.25891489	-0.82692057	-0.24309555	-0.03956417	-0.52698188	0.59421306	0.19073131	-0.61337068	0.19162756	0.27144259	-0.51665615	-0.01708334	-0.60166422	-0.72584126	-0.10508277	-0.37775724
3666	36.65000000	-0.91846728	-0.20063806	0.03828814	-0.64643095	0.30748547	-0.60150763	-0.72898041	-0.35332058	-0.25933373	-0.82852930	-0.24001507	-0.03818079	-0.51497815	0.60286963	0.19003535	-0.61076345	0.19705616	0.26981576	-0.52526722	-0.01507970	-0.60083306	-0.73098840	-0.09627298	-0.37919624
3667	36.66000000	-0.91408778	-0.20302263	0.04137615	-0.64355171	0.30364633	-0.60690406	-0.73058976	-0.35607660	-0.24867457	-0.82626137	-0.23341419	-0.03591507	-0.50706256	0.61547354	0.18864956	-0.61037208	0.19581332	0.25905112	-0.52729685	-0.02110894	-0.59778265	-0.73325098	-0.09094869	-0.37586731
3668	36.67000000	-0.91523759	-0.19758113	0.03834993	-0.64697648	0.29929929	-0.60134654	-0.72328192	-0.36652452	-0.24740460	-0.82803296	-0.22344655	-0.03219709	-0.50094128	0.61787249	0.17760832	-0.61041655	0.20156262	0.25708090	-0.53844597	-0.02409442	-0.58988959	-0.74009348	-0.08848372	-0.37368113
3669	36.68000000	-0.91587932	-0.19665025	0.03721612	-0.64772028	0.29664047	-0.59873749	-0.72107108	-0.37827619	-0.23604368	-0.83014089	-0.22653623	-0.02751057	-0.49315282	0.63150801	0.17467834	-0.61224875	0.19995362	0.25553426	-0.54543840	-0.02632777	-0.58039901	-0.73938414	-0.08762863	-0.36538011
3670	36.69000000	-0.91597898	-0.19181698	0.03569640	-0.64946405	0.29523779	-0.60420680	-0.71823362	-0.38605554	-0.22484568	-0.83257741	-0.22358231	-0.02299002	-0.48011266	0.64149490	0.17176311	-0.61385066	0.20911091	0.25516283	-0.55804939	-0.02662417	-0.56483939	-0.74005366	-0.07510285	-0.36170285
